Ghar Jawaiyaan Da
Punjabi Funny Movie (Jaswinder Bhalla)

Format                                   : AVI
Format/Info                              : Audio Video Interleave
File size                                : 695 MiB
Duration                                 : 1h 43mn
Overall bit rate                         : 939 Kbps
Writing library                          : VirtualDub build 32706/release

Video
ID                                       : 0
Format                                   : MPEG-4 Visual
Format profile                           : Advanced Simple@L5
Format settings, BVOP                    : 2
Format settings, QPel                    : No
Format settings, GMC                     : No warppoints
Format settings, Matrix                  : Default (H.263)
Codec ID                                 : XVID
Codec ID/Hint                            : XviD
Duration                                 : 1h 43mn
Bit rate                                 : 799 Kbps
Width                                    : 672 pixels
Height                                   : 448 pixels
Display aspect ratio                     : 1.375
Frame rate                               : 29.970 fps
Color space                              : YUV
Chroma subsampling                       : 4:2:0
Bit depth                                : 8 bits
Scan type                                : Progressive
Compression mode                         : Lossy
Bits/(Pixel*Frame)                       : 0.089
Stream size                              : 592 MiB (85%)

Audio
ID                                       : 1
Format                                   : MPEG Audio
Format version                           : Version 1
Format profile                           : Layer 3
Codec ID                                 : 55
Codec ID/Hint                            : MP3
Duration                                 : 1h 43mn
Bit rate mode                            : Constant
Bit rate                                 : 128 Kbps
Channel(s)                               : 2 channels
Sampling rate                            : 44.1 KHz
Compression mode                         : Lossy
Delay relative to video                  : 26ms
Stream size                              : 94.7 MiB (14%)

Screens:
 
http://i.minus.com/ixLOnTutlJjF8.jpg 
http://i.minus.com/ie8cfKLq2gMDj.jpg 
http://i.minus.com/i8vergiWhPUr9.jpg 
http://i.minus.com/ih2cQYm16hrRg.jpg 
http://i.minus.com/ibkGV8ZJEDspVr.jpg
